<?xml version="1.0" encoding="UTF-8"?>
<svg version="1.1" viewBox="0 0 1600 1065" width="2960" height="1972" xmlns="http://www.w3.org/2000/svg">
<path transform="translate(0)" d="m0 0h1600v1065h-1600z" fill="#0E0E2B"/>
<path transform="translate(1520)" d="m0 0h80v895h-9l-10-2-13-4-5-3-2-4 1-3-10 9h-2l-4-11-2-1-10-1-8-5-1-3h-2l-2-5v-4l11-7 8-5 1-2-15 10-13 8h-3l-6-10-6-4-4-8-6-8v-2l-3-1-5-15-1-1-2-9-4-1-4 4-13 29-8 18-7 15h-2l-1 6-4 7-3 7-9 19-9 21 8-4 7-5h2v-2l7-4h2v-2l4-1v2l-10 7-16 10-1 7v3l4 5 8 7 10 9-3 1-5-5-11-10-7-5-3-1v2l-3 3-5 17-2 1 1-8 3-9v-5l-13 9-13 11-7 5-1-2 10-8 11-9 8-7 1-2-16 6-48 16-10 3-10 4-40 13h-4v-2l4-4 3-5 3-3 1-8 1-7 2-4v-16l-7-7-2-9-4-6-1-5-7-4-5-6-1-5 2-3-1-12-3-13v-5l2 2 4 12 3 4 1 7 3 5 3 3 2 9 2 5 3 1 3 5 5 8 1 9h4 2l1-4v-11h-2l-2-6-4-2-4-3v-3l-5-2-1-7-4-4 1-19-2-4-1-12-3-6-2-7-2-1v-2l-4 1v-3l3-1-4-4v-2h-2l-1-2-1-9v8l-4 5v9l-1 5-2-2v-9l-3-1-1-7-1-9 1-5 1-4-3-14v-3l-5-1-2-7-4-2-1-6 5 1-2-9 1-4 5-3 5-1v-3h6l2-1-2-7 8-2 1 3 3 2 5-1v-4l-1-2 6-2-1-9 4-2h3l4-6h2l2 9 7 1 5 6v4h2l1-8 6 2 3 3v2l5-5 4-1-1-9-5-1-1-15-3-10 1-8 1-7-1-5-3 1 1-7-1-4 4-6 3-11h-2l2-5 3-11v-7l2-6h-5l-5-6v-2h-4l2-9h-2l-2-5-3-9-5-2v5l-6-1-2-6-2-1 1-3 2-1 1-4-5 2-1-2v-7l-1-11h2l-1-3-3-1 1-4 5-2v-2h3l-1-4-2-1 3-1v-2l5-1 1-2-3-1-1-6 5-1 1-4 3-1-1-6h3v-2l5 1-4 3 2 2h6v-10l4 1 6-4 4-5 5-3 11-1 3 3 5-1 1-3 4 1h8l5-6 7-2-2 4 4-1 2-1 1 3-1 3-3 2-10 2v2l5 2 4-2h11l2 2 4-3h3l-1 7h8l4 3 5-4 4-2h6l5-7 2-4 7-1 4-3 5-2h6v3h7l3-2 3 3 1 6h1l-14-65-5-26-7-30-7-4-1-5 2-5 3-2 8-1 2-5 10-15 4-7 7-10 9-14 5-9 14-20 11-18 4-5 10-15 1-3h2l1-4 2-4h2l1-4 6-9-1-8-7-23-4-15-4-12v-2l-7 1-3-5-1-1v-6l1-5-15-15-2-4 4 2 15 15 10-1 6-8 1 2-5 9 8-4 11-8 7-4v-7l-4-13-4 7h-2l2-5 3-4v-8l-7-28-3-15-4-15-3-12-4-20z" fill="#07213D"/>
<path transform="translate(843,318)" d="m0 0h15l-2 4-6 1-7-1-5 4h-5l4 8 4 2 9 2 4 2-3-5 1-3 6 2h9l4 2 9 1 5 3 5 2 3 3 7 3 9 4 7 3 5 3 4 2v2h8l4 6 6 3v2h2l2 2h4l8 11 5 5 2 5 5 4 14 16 5 5 3 6 1 4 4 8 3 3-1 2-2-1 3 6 2 2v11l3 1v2h2v-2l5 2 5 5 6 1h7v-12l4-6 4 2-2 5 1 2 1 17 2 10 3 1 2-8h2l2 16 3 3 7-1 4 2 7 14 1 5-1 10 1 6-2 14-1 16-2 8 1 5 1 3-3 6h-2v9l2 3-1 10-2 9-4 1-2-2-4-12-2 5-2-3 1-4 3-5-1-7-1-3 4-8v-7l-5-1h-5l-2-4 3-3 5-2v-9l3-7 2-5 5 1v-6l-4-1-2-9v-2h-2l-2-5v6l-3 5-4 1-2 16-3 3-1 4v10l-2 3h-2l-2 6-3 3-2 9-5 6-2 6-1 2h-2v7l-4 8-2 5-3 1v6l-3 3-1 7-5 4-6 14 1 5 1 2-5 4-3 5-3-1-5 5-6 1-3 10 8 1 8-8 1-4h2l1-3 6-2 2-4 2-5h2l1-3 7-4 3-1v2h-2l-2 4-5 2 1 9-5 4-3 9-5 4-3 6-10 9-5 5-7 4-6 5-3 5-5 3-6 1-2 6-1 1h-5l-4-5-7 1-6 3 7 2 1 1v5l-5 2h-5l-1 9-2 1-5-3-7-2 1 5-6 2-19 2-3-4-6 1-1-13 1-3-1-2-5 5-6 5-6 4-7 1-7 3-16 3-5-2-3-2-9-1-4-2-15-2-7-3h-9l-6-4h-4l-1-3-4-1-1 2h-10l-3-3 4-2v-2l-15-2-4-3-10-3-9-4-2-1-3-5-7-3-9-6-2 3-14-7 4-2-3-2-3-5-1 6-6-5-8-4-1-2 4-1-3-3v-2l-4 1-10-8-8-6-1-3-5-3-7-1-2-3-1-10-6-10-4-6-3-4-4-9-4-7-2-5-6-3-2-13-3-3-2-10-3-4-1-4v-28l-2-3v-11l-2-5 3-11 1-1 2-25 3-3 3-11 1-12 1-3 1-17 1-9 5-5 5-4 3-5 3-1 5-6 6-4 14-12 7-5 1-5 9-8 7-3 5-5h3l2-4 10-6 7-3 3-2 6-2 6-4 8-2 5-3 11-1 14-6 5-2h12l6-2 5-5 5-1 5 3 1 1h6l1-1 14-1 6-2 8-1 3-2 5 1h12l1-1h10z" fill="#07203C"/>
<path transform="translate(1572,451)" d="m0 0 1 3-10 26-3 7-5 12-4 9-2 5-1 6h4l1 4h47v372h-9l-10-2-13-4-5-3-2-4 1-3-10 9h-2l-4-11-2-1-10-1-8-5-1-3h-2l-2-5v-4l11-7 8-5 1-2-15 10-13 8h-3l-6-10-6-4-4-8-6-8v-2l-3-1-5-15-1-1-2-9-4-1-4 4-13 29-8 18-7 15h-2l-1 6-4 7-3 7-9 19-9 21 8-4 7-5h2v-2l7-4h2v-2l4-1v2l-10 7-16 10-1 7v3l4 5 8 7 10 9-3 1-5-5-11-10-7-5-3-1v2l-3 3-5 17-2 1 1-8 3-9v-5l-13 9-13 11-7 5-1-2 10-8 11-9 8-7 1-2-16 6-48 16-10 3-10 4-40 13-4-1 28-10 30-10 20-7 11-3 9-3 10-4 13-4 7-3 3-8 1-1 7-1 9-17 7-17 10-19 4-9 5-10 3-9 8-18-4-2-5-10-3-11v-8h-8l-7 1 5-6h2l-3-9-2-18-1-8-2-1-1-3-3-2-3-18-2 1v-3l-2 3-3 1-1 8-2-4-1-16v-13l-8 10-9 13-8 11-12 16-7 10-8 11-14 19-10 14-1 3 12-3 15-2 12-3 38-8 10-1-3 2-28 7-1 10-1 2v28l2 5 10 7 9 6-3 1-17-10-2-2-7-3-10-7-16-9-17-11-6-2 1 13v14h-1l-2-12-1-12-4-7 1-3 5-2 13-17 9-12 14-19 5-7v-5l-3-7-1-6h4l-6-8v-6h-2v-5l2-3v-7l-2-4 1-21 3-3h3l1-25 1-11 5-9 6-5 9-11 5-9 4-3 3-6 4-2 1-2h2v-2l5-5 2-7 11-8 4-4 7-6 2-4 3-2 20-4v-2l12 2-6-28v-9h1l5 19 3 13 1-1v-21l2-2 1 13 15-1 3 2 6-5 7-2 7 1 7 2 1 3-2 3 9-7v-4l-3-5-1-8 3-5 4-2 4 3 6-12 5-13 3-9h2l1-6z" fill="#0D3E56"/>
<path transform="translate(1473,802)" d="m0 0 5 2 2 9 5 12 1 4 5 5 5 7 3 7 6 4 5 8v2l10-5 18-12 3-1-1 3-14 9-5 3 2 4 2 3 5 5 4 3 10 1 3 2 3 11 5-4h2l1-3 6-4-2 5 2 3 7 4 13 4 16 2v170h-352v-4l-4-1-4 3-1-5v-8l-3-5 1-7 4 1v-8l4-3h2l2-4 6-3-2-6-8-6v-2l-4-2-7-4-6 2-5 11-6 15-4 8-1-3 4-9 5-12 4-10-5-2v-2l-3-1 2-10 8-6 9 1 5 5 10-2 14-5 13-2 37-12 10-4 10-3 36-12 11-3 12-5 5-1-2 4-10 9-10 8-6 5 2-1 17-14 13-9h1l-1 10-3 9v3l6-19 3-1v-2l5 1 15 13 5 4 1 2 1-1-13-12-7-6-2-4 1-1 1-7 17-11 8-6h2v-2l-4 1v2l-7 4h-2v2l-14 9h-3l2-7 7-17 16-32 1-4h2l3-9 4-8 7-16 10-22 5-10z" fill="#07213D"/>
<path transform="translate(475)" d="m0 0h312l-1 5-3 6-4 1-5-2 4 12 4 9-1 3-5 2 2 5 2 2-4 3 2 4 4 4-1 5-2 2-7-1-3-2v-2l-8 2-1 8-4 2-2 5 1 3-5 3-8 7-2 4 3 1-1 2-3-1-5 2v6l-4 5-5 4-3 7v5h-10l2 8-1 2-11 2h-8l-3 3-1 2h-2l-1-2h-4l-1 4-4 4-2-3v-2l-3 1-5-1-7-1-3 2-2 7-3 8-6 2-2 6-5-1-1 3-7 1-3 7-5 3-5 2-3 3-7 3-5 4-10 1-11 7-5 5h-3l-1 3-2 1-9 1-6 3-3-4h-5l-4 6-6 3-7 2h-5l-5-5v-2l-4 1-3 5-4 1v7l-2 3-9 3-4 6-3 1-1-3-7-2 2-5-4-3v-8l-4-1v2h-3l1-5 2-4v-6l2-2 5-1-1-5h-7l-4 3-9 1-2 7-4-1-2-6-1-5-5-3-4-5v-2l-6-1-3-3h-9l-2-4-5-1-3-6v-4l6-2 2-3v-9l-4-2v-8l2-17 2-12 5-35h7l84 21 3 1 1 5 4-1 1 3h2l1-5 2-1h-3l1-4 16-15 8-7-5 4-8 7-12 10h-5l-10-15-8-14 6 11 10 18v2l-8-1-49-12-1-2 16-2 6-5-5-2-1-8-2-11v-10l2-2 8-1 4 2v-3l13-2 65-9 44-6 14-2-14 1-107 15-32 4h-6l-2-1v-2l5-3 1-13 1-3 3-2-7-13z" fill="#02031D"/>
<path transform="translate(1522)" d="m0 0h78v523l-47 1-1-5h-4v-6l6-14 5-12 5-13 8-20-6 12-6 14-1 4h-2l-1 7-4 9-6 15-4 4-1-3-5 1-3 5 2 10 1 3 2 1-3 5-6 5h-2l1-6-9-2h-5l-9 3-4 4-3-2-15 1-1-1-1-11v21l-3 2-6-27-2-6-4-19-3-17-11-51-5-20-3-16-3-13v-5l4 4 14 20 16 23 6 9v3h2l7 10-5-9-13-18-12-18-11-16-5-7 2-5 1-7 4-3 16-8 17-8 38-20 22-12 6-3h5l3 3 7 1 1 4 1-5 3-1 1-11-3-5-1-1-7-1-14-47-8-28-7-24-9-29-2-8v-4l4 1 12 11 9 7-4-5-11-9-5-5v-12l24-16 2 1 2 6-6-26-2-12-4-15-7-31-8-33-4-18z" fill="#0D0E2B"/>
<path transform="translate(183,359)" d="m0 0 3 4 13 26 11 23 12 25 16 33 6 13 5 1 1 2 3 1-2 4h2l-1 3-4 3-3-1v-2l-10 5-24 16-29 19-26 17-18 12-10 7h-2l-1 3-2 1-1 4 5 3 2 4 1 9 1 3 3 2 1 13 2 4 3 16-1 4v14l-4 6v9l-1 2-8 3 2 2 4-2v2h2v2l5 2 2 2v7l-3 5-2 2v9l-4 8-2 3-1 9-6 8-3 6-7 9-2 1-3 8-3 6 5 1 4 5v2l3 1 2 5 4 2-1 2-3-1 1 5-5 1v13h-2l-1 3-1-3-1 5 2 1v-2h3v28l-3 2-2-17-2-1-14 1 1 3h5v7l-5 4-7 2-4 5-8 2-2 5-5 4-3 7-7 4-9 4h-2v-2l-4 2 1 2-9-1-14-7h-3l10 8 6 4 1 3h-3l-3-3-6-4-8-5-4-4-7-4v-2l-5-1v-359l2-3 2-7 1-2h2l1-2 4-5 8-14 7-12 1-3-3 1-1-6h2l1-5h5l1 1 2-2 2 3 1 8-1 3h-5l4 40 1 7 8-5 5 1 2 1v2h2l1 5 5 1 7 4 12 9 2 5 6 4 4 7 5 5 4 6 2 6 2 4 4 2 6 7 3 2 1 15 6-1 20-12 27-18 32-21 36-24h2l-2-5-5-4-1-4-16-15-14-12-7-7-8-7-13-12-10-9-11-10-8-7-5-6 4 2 14 13 11 9 8 7v2l4 2 3 3 7 2 3 3 5 2 7-5 10-1-14-30-14-29-6-13z" fill="#4E2E2D"/>
<path transform="translate(1520)" d="m0 0h2l10 42 8 36 5 21 1 2 2 12 6 26-1 3-2-4-1-5-9 5-14 10h-2l1 12 7 7 11 9 1 3-4-2-11-10-7-6-3-1 5 19 5 15 4 13 7 26 14 46 5 18v3h7l4 4 1 7-2 7-3 3v5l-2-2v-4h-7l-3-3-7 1-25 13-14 8-16 8-15 8-19 9-11 6-2 9v4l15 22 17 25 10 14 3 5-1 2-7-9v-2h-2l-5-9-16-23-14-20-4-6 1 7 3 16 4 19 4 16 12 55 3 17 1 5 1 14 5 24v4h-6l-6-2v2l-15 4-8 2-2 5-8 7h-2l-2 4-10 7-2 8-3 3h-2v2h-2l-1 3-4 2-3 6-4 3-4 8-13 15-4 4-3 6-2 32-1 4-5 1-1 22h-5v7h-2l-1 3h-6l-2-1v3h-2l-1-3-2 8h-3l-2 4-5 1-3-1-1 5-8-1-2-7-5-1-1-15-3-10 1-8 1-7-1-5-3 1 1-7-1-4 4-6 3-11h-2l2-5 3-11v-7l2-6h-5l-5-6v-2h-4l2-9h-2l-2-5-3-9-5-2v5l-6-1-2-6-2-1 1-3 2-1 1-4-5 2-1-2v-7l-1-11h2l-1-3-3-1 1-4 5-2v-2h3l-1-4-2-1 3-1v-2l5-1 1-2-3-1-1-6 5-1 1-4 3-1-1-6h3v-2l5 1-4 3 2 2h6v-10l4 1 6-4 4-5 5-3 11-1 3 3 5-1 1-3 4 1h8l5-6 7-2-2 4 4-1 2-1 1 3-1 3-3 2-10 2v2l5 2 4-2h11l2 2 4-3h3l-1 7h8l4 3 5-4 4-2h6l5-7 2-4 7-1 4-3 5-2h6v3h7l3-2 3 3 1 6h1l-14-65-5-26-7-30-7-4-1-5 2-5 3-2 8-1 2-5 10-15 4-7 7-10 9-14 5-9 14-20 11-18 4-5 10-15 1-3h2l1-4 2-4h2l1-4 6-9-1-8-7-23-4-15-4-12v-2l-7 1-3-5-1-1v-6l1-5-15-15-2-4 4 2 15 15 10-1 6-8 1 2-5 9 8-4 11-8 7-4v-7l-4-13-4 7h-2l2-5 3-4v-8l-7-28-3-15-4-15-3-12-4-20z" fill="#1D2D44"/>
<path transform="translate(1596,631)" d="m0 0 4 1v263h-9l-10-2-13-4-5-3-2-4 1-3-10 9h-2l-4-11-2-1-10-1-8-5-1-3h-2l-2-5v-4l11-7 8-5 1-2-15 10-13 8h-3l-6-10-6-4-4-8-6-8v-2l-3-1-5-15-1-1-2-9-4-1-4 4-13 29-8 18-7 15h-2l-1 6-4 7-3 7-9 19-9 21 8-4 7-5h2v-2l7-4h2v-2l4-1v2l-10 7-16 10-1 7v3l4 5 8 7 10 9-3 1-5-5-11-10-7-5-3-1v2l-3 3-5 17-2 1 1-8 3-9v-5l-13 9-13 11-7 5-1-2 10-8 11-9 8-7 1-2-16 6-48 16-10 3-10 4-40 13-4-1 28-10 30-10 20-7 11-3 9-3 10-4 13-4 7-3 3-8 1-1 7-1 9-17 7-17 10-19 4-9 5-10 3-9 7-16h2l1-5 10-23 3-4 2-8 13-4-11 2h-6l-2-4-4-10v-7h-1v-27l3-12 5-12 4-13 7-12 5-6 10-8 7 1 5 19 1 7-1 1h3l-3-10-5-22v-9l4-2 5-5 5-3 8-6 6-1 5-3 5 1 1 2-9 20v2l12-25 5-6 16-2 2-1h9 3l7 2-6 8-2 3 14-14z" fill="#116E80"/>
<path transform="translate(1473,802)" d="m0 0 5 2 2 9 5 12 1 4 5 5 5 7 3 7 6 4 5 8v2l10-5 18-12 3-1-1 3-14 9-5 3 2 4 2 3 5 5 4 3 10 1 3 2 3 11 5-4h2l1-3 6-4-2 5 2 3 7 4 13 4 16 2v170h-15l-8-41-3-13-5 2-2 2-16 2h-10l-13 1-4-1h-16l-7-3-10-6-13-10-11-9h-6v-5l-11-9-10-9-2-1v-2l-2-1v-2l-13-12-7-6-2-4 1-1 1-7 17-11 8-6h2v-2l-4 1v2l-7 4h-2v2l-14 9h-3l2-7 7-17 16-32 1-4h2l3-9 4-8 7-16 10-22 5-10z" fill="#0D3E56"/>
<path transform="translate(525,941)" d="m0 0 4 1 7 19 9 28 7 19 3 7 5 14 4 10 5 19v7h-208l1-24 2-17 4-1 21 12 19 11 8 4-8-6-11-7-14-10-9-6-9-5-7 1-6 4h-4l1-5 4-3 10-5h6l2 1v4l6-4 1-4-3-3 1-4 8-3 1-3-4-3 2-5-1-7 3-1v-4h-10l-3-4v-6l2-2 9 1 5-5 6-2 3-3 15-1 3-2 3-1h15l4 4 5-2v-2l4-1 29-1 23-1 9 1v2l-8 4h-2v2l-21 9-54 27-5 2 6-2 34-15 32-15h2v-2l25-12z" fill="#02031D"/>
<path transform="translate(1572,596)" d="m0 0 7 2h8l13 3v31l-5 1-8 7-9 9v-3l8-9-7-2-2 1v-2l-9 1-10 2-8 1-6 9-10 21-2 1 1-5 8-18-2-2-6 1-4 3-5 1-8 6-6 4h-2l-2 4h-3l3 19 5 20v2l2 1h-6l1-3-5-22v-3h-7l-10 8-6 8-7 14-5 16-3 7-2 9v26l1 3 1 8 3 7 1 3 12-1 10-1-4 2-14 3-1 8-4 7-11 25-1-2-4-2-5-10-3-11v-8h-8l-7 1 5-6h2l-3-9-2-18-1-8-2-1-1-3-3-2-3-18-2 1v-3l-2 3-3 1-1 8-2-4-1-16v-13l-8 10-9 13-8 11-12 16-7 10-8 11-14 19-10 14-1 3 12-3 15-2 12-3 38-8 10-1-3 2-28 7-1 10-1 2v28l2 5 10 7 9 6-3 1-17-10-2-2-7-3-10-7-16-9-17-11-6-2 1 13v14h-1l-2-12-1-12-4-7 1-3 5-2 13-17 9-12 14-19 16-23 11-15 14-19 4-6 1-4h3l3-5h2l2-5 5-9 9-14 12-17 4-5 6-3h2v-2l6-3 6-5 5-5h3l1 2 6-2 2 1 2-1 1-3h2l1-4 4-3 11-4 5-3v2l7-4 3 1 5-2v2l5-1v2l11-4 7-1 4-2 4 1-1 7v1l5-9 6-5z" fill="#10586D"/>
<path transform="translate(0)" d="m0 0h113v9l2 5v3l6 3 1 2 8 4 4 6 3 2 2 4v17l-1 10-5 6-3 6h-3l-4-2 3 3-3 2-3 6v2l5 1v1l-12 2h-9l-4 2-16 2 9 3 1 1v5l-8 6-2 4-6 3-1 7-1 5-3-1-6-14-6-9 2 5v3l-6 1-5-4-2-1-2 8h2v3l-4 1-8-5v-2l-5-2-8-3v-4l5-1 4 2 6-4 2-1-35 5 4 56v14h-1l-5-62v-8h-5z" fill="#07203C"/>
<path transform="translate(81,943)" d="m0 0h12l1 2h4l3 4 5-1 4-4 1 3 6 1 1 4h6l2-3 2 2h3v-4h2l1 9-6 5-2 6 1 8 2 2 6 1-1 5-6 4-2 3-2 7-4-5-3 6h2l2 5 3-3 1 1-1 19-2 5-6 3-4 5-3 7-3 3-3 7-4 15h-99v-97h2l1-3 12 1 10-4 3-3 7-2 1-1h18l10-7 7 5 2-7 4-3z" fill="#07203C"/>
<path transform="translate(1522)" d="m0 0h78v241h-8l-8-7-8-5-1-10-3-3-1-5-1-6 5-2h-2v-2l-4-2-3-7-2-2v3l-4-2-12-11-11-9-12-11v-12l24-16 2 1 2 6-6-26-2-12-4-15-7-31-8-33-4-18z" fill="#0E0E2B"/>
<path transform="translate(1473,802)" d="m0 0 5 2 2 9 5 12 1 4 5 5 5 7 3 7 6 4 5 8v2l10-5 18-12 3-1-1 3-14 9-5 3 2 4 2 3 5 5 4 3 10 1 3 2 3 11 5-4h2l1-3 6-4-2 5 2 3 7 4 13 4 16 2v170h-15l-8-41-7-32-8-37-6-26-3-8-4-1-10-1-5-4 1-5 10-11-5 4-11 11-4 1-9-4-9-5-3-3-1-3-8-7-5-5h-11l-34 24h-6v2l-7 4h-2v2l-14 9h-3l2-7 7-17 16-32 1-4h2l3-9 4-8 7-16 10-22 5-10z" fill="#11596E"/>
<path transform="translate(1409,708)" d="m0 0 2 1v13l1 17 2-8 1 2 3-3 1-5h1v7l2-1 3 19 3 2 2 3h1l2 22 2 9 1 5-6 5 10-1 4 1 2 12 4 11 3 6 3 2-3 9-6 13-3 9-5 9-4 10-9 17-6 15-9 17-1 1-7 1-4 9-2-1 2-9 4-3 1-6-2-4-4-2-7-9-4-4-3-6-5-12-5-16v-6l11-1-1-4 4 2 17 10h2l-16-10-4-4-1-9v-23l3-12 8-3 20-5-12 2-37 8-15 3-17 3h-3l1-4 12-17 12-16 7-10 16-22 9-12 12-17z" fill="#0D3E56"/>
<path transform="translate(183,359)" d="m0 0 3 4 13 26 11 23 12 25 16 33 6 13 5 1 1 2 3 1-2 4h2l-1 3-4 3-3-1v-2l-10 5-24 16-29 19-26 17-18 12-10 7h-2l-1 3-2 1-1 4 5 3 2 4 1 9 1 3 3 2 1 13 2 4 3 16-1 4v14l-4 6v9l-1 2-10 3-13-15-10-11-9-11-11-12-14-16v-3h-2l-3-11-1-3h2l-3-8-7-3-1-8-4-4-5-2-2-7-6-67v-8h1l1 7 8-5 5 1 2 1v2h2l1 5 5 1 7 4 12 9 2 5 6 4 4 7 5 5 4 6 2 6 2 4 4 2 6 7 3 2 1 15 6-1 20-12 27-18 32-21 36-24h2l-2-5-5-4-1-4-16-15-14-12-7-7-8-7-13-12-10-9-11-10-8-7-5-6 4 2 14 13 11 9 8 7v2l4 2 3 3 7 2 3 3 5 2 7-5 10-1-14-30-14-29-6-13z" fill="#34222C"/>
<path transform="translate(1597,678)" d="m0 0h3v173h-2l-20-30v-3h-2l-9-16-12-19-1-1 13 22 8 13-1 4-21 14-4 1-5-2v-3h-6l-6-23-6-27 1-4 29-7-30 6-2-6-6-29v-6h3l-6-11-1-3-5-1-3-5 3-5 4-1 3 1 1-3 4-2 9-11h2v-2h2v-2l8-7h3l-9 11-9 10h-2l-2 4-4 6 3 1h9l2-6 7-10h2l2-4 10-6 16-6 12-4z" fill="#11939E"/>
<path transform="translate(1372,493)" d="m0 0 2 1-2 3 4-1 2-1 1 3-1 3-3 2-10 2v2l5 2 4-2h11l2 2 4-3h3l-1 7h8l3 3 6 2-2 7-3-1v-2l-4-1-1 5-1 2 3-1 4 4-3 1v12l-5 2-2 4-1 5-1 1h-5l1 4v7l-1 3 1 3-5 7-1 5-6 4-2 4-3 2-3 7-3 3-9 3-2 4-3 3h-3l-1-2-2 5-4 1-2 5-6-1-2-1 1 3-11-3v3l-9-2-5-6v-2h-4l2-9h-2l-2-5-3-9-5-2v5l-6-1-2-6-2-1 1-3 2-1 1-4-5 2-1-2v-7l-1-11h2l-1-3-3-1 1-4 5-2v-2h3l-1-4-2-1 3-1v-2l5-1 1-2-3-1-1-6 5-1 1-4 3-1-1-6h3v-2l5 1-4 3 2 2h6v-10l4 1 6-4 4-5 5-3 11-1 3 3 5-1 1-3 4 1h8l5-6z" fill="#2E2D3B"/>
<path transform="translate(591,925)" d="m0 0 7 4 5 11h2v2l3 1 3 4h2l1 7-5-2v2l-3 2 3 1 1 3 2 1v2l5 2 8 2 2 5v2l4 1 2 10 3 1 4-1 7 2 2 6 8-1 1 2 5-1 7-2 2 1 1-4 4 1 1-2 2 4 10-4 1-3h3v-5l3 2 2 7 5 4v3l6-1 1-3 4 2 2 4h3l3-7 3-1 1 19 1 3 4 2 7 1 1 3 4 1v3l7 1v-2l4 1 2 1v2l5 2 5 8 7 7 9 3 3 2 10 2-1 3-11-1-9 1-16-2-13-3h-13l-14 1-10 2-29 4h-15l-3-1-7-8-11-8v-2l-4-2-5-4v-2l-5-2-13-11-1-3v-26h-2v26l-4-2-5-5-11-10-10-10-13-11-5-5-1-3-8-6v-2l-5-2-6-5-8-6-2-4h-2l-1-4h-18l-2-1v-4l11-2h8l8 4 3 5 6 3 4 6 9 8 5 5 5 1 5-3 4-5v-9l-1-8v-6l3-2 4 3 1-3z" fill="#02031D"/>
<path transform="translate(1463,988)" d="m0 0 5 1 11 9 13 10 12 7 6 1h14l5 1 12-1h14l12-2 3-3 4-1 2 5 6 28 3 16v6h-191l1-4 9-10 25-25 7-8 9-10 7-8 6-7h2l1-4z" fill="#07213D"/>
<path transform="translate(138,676)" d="m0 0 3 2v7l-3 5-2 2v9l-4 8-2 3-1 9-6 8-3 6-7 9-2 1-3 8-3 6 5 1 4 5v2l3 1 2 5 4 2-1 2-3-1 1 5-5 1v13h-2l-1 3-1-3-1 5 2 1v-2h3v28l-3 2-2-17-2-1-14 1 1 3h5v7l-5 4-7 2-4 5-8 2-2 5-5 4-3 7-7 4-9 4h-2v-2l-4 2 1 2-9-1-14-7h-3l10 8 6 4 1 3h-3l-3-3-6-4-8-5-4-4-7-4v-2l-5-1v-26h11l1-2 14-5 5-4h6l1-4 4-3 3-1 2-3h2l2-4 7-8 8-7 3-5 2-1 1-5-2-1-1-5 7-3h5l1-6h2l2-5 4-7 3-7 2-3 2-10 4-5 4-10 1-10-2-1 8-4 17-6v4l7-3 3-6-2-1z" fill="#33222D"/>
<path transform="translate(1520)" d="m0 0h2l10 42 8 36 5 21 1 2 2 12 6 26-1 3-2-4-1-5-9 5-14 10h-2l1 12 7 7 11 9 1 3-4-2-11-10-7-6-3-1 5 19 5 15 4 13 7 26 14 46 5 18v3h7l4 4 1 7-2 7-3 3v5l-2-2v-4h-7l-3-3-7 1-25 13-14 8-16 8-15 8-19 9-11 6-2 9v4l15 22 17 25 10 14 3 5-1 2-7-9v-2h-2l-5-9-16-23-14-20-4-6 1 7 3 16 4 19 4 16 12 55 3 17 1 10-2-4-6-24-12-56-5-26-7-30-7-4-1-5 2-5 3-2 8-1 2-5 10-15 4-7 7-10 9-14 5-9 14-20 11-18 4-5 10-15 1-3h2l1-4 2-4h2l1-4 6-9-1-8-7-23-4-15-4-12v-2l-7 1-3-5-1-1v-6l1-5-15-15-2-4 4 2 15 15 10-1 6-8 1 2-5 9 8-4 11-8 7-4v-7l-4-13-4 7h-2l2-5 3-4v-8l-7-28-3-15-4-15-3-12-4-20z" fill="#1D2D44"/>
<path transform="translate(1441,381)" d="m0 0 4 4 14 20 16 23 6 9v3h2l7 10h2l8 12v2h2v3h2l3 5 9 1h8l5 3h8l3 2 5-1 4-1 7 2 1 4v7l-5 11-6 15-4 4-1-3-5 1-3 5 2 10 1 3 2 1-3 5-6 5h-2l1-6-9-2h-5l-9 3-4 4-3-2-15 1-1-1-1-11v21l-3 2-6-27-2-6-4-19-3-17-11-51-5-20-3-16-3-13z" fill="#1D2E45"/>
<path transform="translate(793,488)" d="m0 0h20l7 3 3 2 8 2 10 6 2 4 5 3 2 8 3 3-1 16-4 3-2 6-1 4 1 5-3 3-4 8-2 2-6 2-4 7-6 5h-11l-8-1-4-2-2 1-12-1-5-3-4-4h-6l-4-3-1-5-4-2-7-7-2-9v-18l4-13 5-5 5-6 8-6 9-4 9-3z" fill="#0D3E56"/>
<path transform="translate(1520,160)" d="m0 0 4 1 12 11 7 6 5 1 14 13h1v-5l4 5 3 7 3 2v2h2l-1 2h-4l1 6 2 1v5l3 2 1 10 11 7 4 4 8 1v74l-7 1h-9l-9 1-2-1v-5l-2-4-3-5-1-1-7-1-14-47-8-28-7-24-9-29-2-8z" fill="#33222D"/>
<path transform="translate(475)" d="m0 0h288v1l-37 6-74 10-12 2h-14l-64 9-50 7-32 4h-6l-2-1v-2l5-3 1-13 1-3 3-2-7-13z" fill="#04041D"/>
<path transform="translate(1460,989)" d="m0 0 1 2-7 8-7 7-7 8-9 10-7 8-22 22-7 8-1 3h-97l1-8 5-17 11-13 7-9 4-4 11-3h6l3 2v-23h1l2 10v6h27l12 3 1 3 5 2 7 4 1 9 5 8 6 3 8-7 11-12 5-5 12-13 5-6h2l1-3z" fill="#0D3E56"/>
<path transform="translate(102,694)" d="m0 0 4 1 1 5-3 9-4 9-3 4-2 10-3 4-3 7-6 10-2 5-12 3 1 3 2 2v6l-4 3-3 5h-2l-2 4-6 5-6 8-4 4-6 3-2 4-8 2-3 3-13 5-3 2-10-1v-44h4l1-3 8-5 7-6 2 1-2 3h-2l-2 4-11 11 5-1 2-4 3-1v-2h2v-2h2v-3h2l2-4 6-5 4-2 1-2h2l2-4 12-9h10l2-8-4-2-3-1-1-7v-11l8-1 1-1 3-2 25-10z" fill="#3E252C"/>
<path transform="translate(1522)" d="m0 0h78v61l-4 2-7 1-2 2h-6l-1-4h-5v-4l-6 10-12 19-8 14-3 4-5-19-7-31-8-33-4-18z" fill="#0D0E2B"/>
<path transform="translate(0)" d="m0 0h37v2l5 2 10 9 6 5-4 1 1 3-3 5-4 6-3 3h-2l-1 3-4 1-7-2-1 2h2l3 6v4h2l6 13h6l1 7-1 6 10 21v3l-25 3-20 3-7 1 4 56v14h-1l-5-62v-8h-5z" fill="#08203B"/>
<path transform="translate(38,513)" d="m0 0 1 2 3-1h8l7 6 5 3 9 11 4 6 6 5 3 5 3 7 5 4 4 12 4 8h6l1 2-2 1-1 10 4 32 1 14-7 2-4-2-11-12-9-11-11-12v-3h-2l-3-11-1-3h2l-3-8-7-3-1-8-4-4-5-2-2-7-3-34z" fill="#3D242C"/>
<path transform="translate(83,759)" d="m0 0h20l6 3 3 6-1 7-1 3v22l2 1v-2h3v28l-3 2-2-17-2-1-14 1 1 3h5v7l-5 4-7 2-4 5-8 2-2 5-5 4-3 7-7 4-9 4h-2v-2l-4 2 1 2-9-1-14-7h-3l10 8 6 4 1 3h-3l-3-3-6-4-8-5-4-4-7-4v-2l-5-1v-6l7 2 7-1 5-2 10-2 8-6 11-7 3-1 12-14 5-4 4-5 9-12 10-12 5-8-2-2-12-1h-7l-3-3z" fill="#292333"/>
<path transform="translate(1559,927)" d="m0 0 9 4 9 1v2h13l10 2v129h-13l-4-22-15-69-1-9h2l-3-2-4-16-3-15z" fill="#0D3E56"/>
<path transform="translate(333)" d="m0 0h84l-1 13-3 11-8 8-4 6-8 4-5 1v2l-2 1-13 2h-7l-10-3-6-3-8-6-7-8h-1l-1-6-5 2-14 8-17 10-4 1 3-3 18-11 19-12-1-5-1-4 1-7z" fill="#3E252C"/>
<path transform="translate(1580,432)" d="m0 0 1 3-2 8-2 4v3l13 1 10-5v77l-47 1-1-5h-4v-6l6-14 5-12 5-13 8-20 1-7 6-14z" fill="#07213D"/>
<path transform="translate(1441,381)" d="m0 0 4 4 14 20 16 23 6 9v3h2l13 19v3h2v3h2l2 5 2 3-1 5-18 2-2 4-1 1h-11l-4-1-1 5h-2l-6-25-8-38-3-11-3-16-3-13z" fill="#0D0F2C"/>
<path transform="translate(1372,493)" d="m0 0 2 1-2 3 4-1 2-1 1 3-1 3-3 2-10 2v2l4 3-9 4h-9v3h-2l-1 2h-8l-3 3h-2v2l-5 3h-2l-2 4-4 2-2 6-4 1-2 6-6 7-2 6-1 2h-2l-2 14-1 4 2 4-1 9-6-2v5l-6-1-2-6-2-1 1-3 2-1 1-4-5 2-1-2v-7l-1-11h2l-1-3-3-1 1-4 5-2v-2h3l-1-4-2-1 3-1v-2l5-1 1-2-3-1-1-6 5-1 1-4 3-1-1-6h3v-2l5 1-4 3 2 2h6v-10l4 1 6-4 4-5 5-3 11-1 3 3 5-1 1-3 4 1h8l5-6z" fill="#292232"/>
<path transform="translate(267)" d="m0 0h2l-2 6-13 23-13 24-7 14 4 1-2 4-2 2-5 2-12 21-12 22-2 1 2-6 15-28 6-10v-3l-2-1-2-6-15-7-29-13 3-2 8-2 3-9 3-7 3-5v-5l9 1 43 11 1 1 10-18z" fill="#3D242C"/>
<path transform="translate(26,442)" d="m0 0h4l1 21 1 12-1 2v7l2 3 2 15 4 50v5l-2-1-1-5v-14l-3-1v-3l-1-6-12 6-7-1-5-3v-2l-4 2 8 10 4 4v2l-4-2-10-10-2-1v-46l2-3 2-7 1-2h2l1-2 4-5 8-14z" fill="#3D242C"/>
<path transform="translate(369,113)" d="m0 0 4 2 20 15 16 13 5 4 5 1 2-7 4-28h1v9l-2 17v10l1 4v4l-7 4-1-3-17 6-43 19-21 9-32 14-18 8-6 3-3 1-1 10 3 8v6l-3 7-2 5-4 4h-3l-1 3-3 1-9-2-7-1-6-3-1-2v-7h-2l-1-8-8-1 2-4 11-7 8-6 7-3 8-1 17-5 130-56v-1l-112-6-12-1v-1h22l102 5-1-2-9-3-24-11-20-9-2-2 5 1 41 18 7 3-5-5-16-13-13-10-6-5z" fill="#34222C"/>
<path transform="translate(1520)" d="m0 0h2l10 42 8 36 5 21 1 2 2 12 6 26-1 3-2-4-1-5-9 5-14 10h-2l1 12 7 7 11 9 1 3-4-2-11-10-7-6-3-1 5 19 5 15 4 13 7 26 14 46 6 22 7 2 2 2v8l-3 2-1 3-6-2-6-3v-8l3-3-1-7-4-11-5-3-9-5v-2l-4-1-6-3-4-5-12-4 1-5 6-9 1-3h2l1-4 2-4h2l1-4 6-9-1-8-7-23-4-15-4-12v-2l-7 1-3-5-1-1v-6l1-5-15-15-2-4 4 2 15 15 10-1 6-8 1 2-5 9 8-4 11-8 7-4v-7l-4-13-4 7h-2l2-5 3-4v-8l-7-28-3-15-4-15-3-12-4-20z" fill="#10586D"/>
<path transform="translate(1451,850)" d="m0 0 4 1 7 7 6 8 9 10 3 6-2 4-17 12-15 10-5 4h-2v2l-7 4h-2v2l-14 9h-3l2-7 7-17 16-32 1-4h2l3-9 5-9z" fill="#0D3E56"/>
<path transform="translate(596,459)" d="m0 0h1l2 10 1 1-1 7-3 9-2 7-3 3-3 20v7h2v16l1 11 3 5 2 6 3 7v11l7 12v7l4 5 3 5 3 2-1 7-1 2 3 1 3 9 2 7-1 5-3-1-3-5-5-3-4-5-2-7-6-8-4-9-3-12-3-3-1-7-3-4 2-4-1-6-2-3v-12l-3-11 2-1-2-6-3-1 2-5v-8l-1-2v-6l3-3v-10l2-7 6 1-1-8-1-2v-18l3-4z" fill="#0D0E2B"/>
<path transform="translate(1370,759)" d="m0 0 2 1-8 12-28 38-3 6 12-3 15-2 12-3 38-8 10-1-3 2-28 7-1 10-1 2v28l2 5 10 7 9 6-3 1-17-10-2-2-7-3-10-7-16-9-17-11-6-2 1 13v14h-1l-2-12-1-12-4-7 1-3 5-2 13-17 9-12 14-19z" fill="#11596E"/>
<path transform="translate(1487,304)" d="m0 0 8 1 4 6 8 8 10 6v2h2l1 3-7 5-14 7-17 9-36 18h-2l1-5 11-18 5-7 4-7 3-5h2l1-4 7-11 7-7z" fill="#0D0E2B"/>
<path transform="translate(1116,983)" d="m0 0 6 1 4 7 1 3 18 8 2 2-5-1-17-7-4-1 6 14 6 15v2h-5v2l-25 9-6 1h-15l-1-1v-12l-1-5 9-7 1-2h2v-2h2v-2l-9 3-12 6h-2v2l-4-1 18-10 17-9 7-4 3-8z" fill="#07223E"/>
<path transform="translate(1511,259)" d="m0 0 1 2 10 2 5 5 4 3 7 3v2l5 2 6 3 5 5 4 12-1 5-2 2-1 8 4 1 8 4 1-4 2-1v-8l-2-2-7-2v-1h7l4 4 1 7-2 7-3 3v5l-2-2v-4h-7l-2-2v-3h-7l-3-5-2-1v-2l-6-1-11-8-12-9-4-4-7-2h-6v2h-2l-2 5-13 19-1 3h-2l-2 5-5 7-1 3h-2l-1 4-5 5 2-5 11-17 5-9 14-20 11-18 4-5z" fill="#0D3D55"/>
<path transform="translate(3,54)" d="m0 0 9 3 21 10 5 2 2 6h6l5 8 6 13v2l-26 4h-5l-7-8-2-1v2l4 2 4 5-1 1-18 2-1-21-1-2-1-11z" fill="#07203C"/>
<path transform="translate(183,359)" d="m0 0 3 4 13 26 11 23 12 25 16 33 6 13 5 1 1 2 3 1-2 4h2l-1 3-4 3-3-1v-2l-10 5-24 16-29 19-26 17-14 9h-2v-2l16-10 15-10 32-21 36-24h2l-2-5-5-4-1-4-16-15-14-12-7-7-8-7-13-12-10-9-11-10-8-7-5-6 4 2 14 13 11 9 8 7v2l4 2 3 3 7 2 3 3 5 2 7-5 10-1-14-30-14-29-6-13z" fill="#33212C"/>
<path transform="translate(83,759)" d="m0 0h20l6 3 3 6-1 7-1 3v22l2 1v-2h3v28l-3 2-1-6v-16l-27 3-1 4-9-2-10 2-1-3 4-6 5-6 9-12 10-12 5-8-2-2-12-1h-7l-3-3z" fill="#2D2D3B"/>
<path transform="translate(1559,927)" d="m0 0 9 4 9 1v2h13l10 2v47l-6-1-19-12-5-3-4-4-4-16-3-15z" fill="#0D3F57"/>
<path transform="translate(1520,160)" d="m0 0 4 1 12 11 8 7 9 8v2l4 1 5 6 3 3-1 4h-3l-2 15-6 9-4 2-3 1-2 5-3 1-5-17-4-15-5-15-5-17-2-8z" fill="#0E0F2C"/>
<path transform="translate(333)" d="m0 0h62l-1 8-4 10-5 4-4 2h-15l-9-4-4-5-2-4-6 2-14 9-22 13-14 8-2-1 21-13 19-12-1-5-1-4 1-7z" fill="#4F2F2D"/>
<path transform="translate(1547)" d="m0 0h53v17h-2l-2 5-6 9-7-1-5-4-7-3-12-9-10-7-3-5z" fill="#02031D"/>
<path transform="translate(415,48)" d="m0 0h8l-3 9-4 10h2v2l8 1 64 16 37 9-11-20-6-10 1-2 8 13 10 16h5l15-13 10-9 2 1-8 8-8 7-10 9-1 3 4-1-1 3h-2l-1 4-3 1-1-2 1-2-5 2 1-3-2-1 1-2-11-2-132-33-29-7-7-2v-1l8 1 9 2 12-1z" fill="#3D242C"/>
<path transform="translate(1520)" d="m0 0h2l10 42 8 36 5 21 1 2 2 12 6 26-1 3-2-4-1-5-9 5-14 10h-2l1 12 7 7 11 9 1 3-4-2-11-10-7-6-3-1 5 19 5 15 4 13 7 26 7 23v6l-2-3-4-12v-2h-2l-3-9h-7l-2-2 3-7 3-4-1-8-7-23-4-15-4-12v-2l-7 1-3-5-1-1v-6l1-5-15-15-2-4 4 2 15 15 10-1 6-8 1 2-5 9 8-4 11-8 7-4v-7l-4-13-4 7h-2l2-5 3-4v-8l-7-28-3-15-4-15-3-12-4-20z" fill="#117A8A"/>
<path transform="translate(356,1022)" d="m0 0 5 1-1 15v27h-31v-4l6-2 1-5-6-3-1 3-4 1-2 5-4-2 2-9 2-2 10 2 5-2 2 1 2-6-10-3v-2h-2l1-2 14-8z" fill="#02031D"/>
<path transform="translate(1545,491)" d="m0 0h2l-1 8 2 4h2l-1 5-5 10h-3v-2l-5 1-3 5 2 10 1 3 2 1-3 5-6 5h-2l1-6-9-2h-5l-1 1h-5l-1-4 3-3 13 1v-4l-3 1-6-3-1-6 2-5 6-2 10-2v-3l-5-1-2-4 1-7h-2v-3h2l1 2 7-2 12-1z" fill="#07213D"/>
<path transform="translate(1029,1037)" d="m0 0 2 1 2 6v11l-1 4 11-3 4 1-16 6h-4v2h-49l2-7 9-4 3-4h2v-2l-4-2 3-2 14 1 2 4 10-1-4-2 7-2-1-2h5v-3z" fill="#292232"/>
<path transform="translate(411)" d="m0 0h6l-1 13-3 11-8 8-4 6-8 4-5 1v2l-2 1-13 2h-7l-10-3-6-3-8-6-7-8h-1l-2-8 8-5 2 1 3 9 11 9 3 1 12 1 3 1h7l14-5 10-10 5-14z" fill="#34222C"/>
<path transform="translate(1539,54)" d="m0 0 7 1 4 3 13 3 7-1 5-4-2 6-9 14-7 11-8 14-3 4-5-19-6-25 1-5z" fill="#07213D"/>
<path transform="translate(73,615)" d="m0 0 5 5 13 14 9 11 13 14 11 14 4 5 1 3-12 5-4-1-2-6-3-5-6-4-8-11v-2l-4-2-6-11-3-5-2-10-5-5v-6z" fill="#3D242C"/>
<path transform="translate(1594,247)" d="m0 0h6v43l-1 1h-10l-8 3h-15l-1-2 1-7 4-1 3-1 2-5 6-4h2l-2-3-2-1 1-3 6-2 1-10 4-6z" fill="#0E0E2B"/>
<path transform="translate(1577,1009)" d="m0 0 8 6 15 3v47h-13l-4-22-6-27z" fill="#07213D"/>
<path transform="translate(267)" d="m0 0h2l-2 6-13 23-13 24-7 14 4 1-2 4-2 2-5 2-12 21-12 22-2 1 2-6 15-28 6-10v-3l-2-1-2-6-7-4 3-2 9-4 1-12 6-10 1-9 8 1 8 3 10-18z" fill="#4D2E2D"/>
<path transform="translate(152,204)" d="m0 0h3 2l1 2 4 2-1 9 10 9 10 8 10 9 11 9 13 11 4 3 1-2 7 1 4 6-3 7-11 1-6 2-16 11-57 38-8 5-2-1 23-16 15-10 22-15 24-16 4-4-4 1-51 3h-17v-1l32-3 33-2h8l-7-8-14-12-10-9-8-7-14-12-6-5-5 1-3-1-4-12 5 1z" fill="#482B2C"/>
<path transform="translate(1555,277)" d="m0 0 1 2h2l3 5 5 9h15l8-3h11v25l-7 1h-9l-9 1-2-1v-5l-2-4-3-5-1-1-7-1-5-17z" fill="#292333"/>
<path transform="translate(1370,759)" d="m0 0 2 1-8 12-28 38-3 6 12-3 15-2 12-3 9-2h8l-4 2-16 4-9 2-2 2 1 9-1 4 2 6 13 9 8 6-3 1-13-8-23-14-8-5-4-1 1 13v14h-1l-2-12-1-12-4-7 1-3 5-2 13-17 9-12 14-19z" fill="#117183"/>
<path transform="translate(369,113)" d="m0 0 4 2 20 15 16 13 5 4 5 1 2-7 4-28h1v9l-2 17v10l1 4v4l-7 4-1-3-17 6-43 19-21 9-32 14-10 4-3-1 12-6 109-47v-1l-112-6-12-1v-1h22l102 5-1-2-9-3-24-11-20-9-2-2 5 1 41 18 7 3-5-5-16-13-13-10-6-5z" fill="#492C2C"/>
<path transform="translate(1461,336)" d="m0 0 1 3-7 10-9 15-2 5 24-12 3 1-17 9-6 3-2 9v4l15 22 17 25 10 14 3 5-1 2-7-9v-2h-2l-5-9-16-23-14-20-4-6 1 7 3 16 4 19 4 16 12 55 3 17 1 10-2-4-6-24-12-56-5-26-7-30-7-4-1-5 2-5 3-2 8-1 2-5 10-15 4-7z" fill="#118E9A"/>
<path transform="translate(183,359)" d="m0 0 3 4 13 26 11 23 12 25 16 33 6 13 5 1 1 2 3 1-2 4h2l-1 3-4 3-3-1v-2l-10 5-24 16-29 19-26 17-14 9h-2v-2l16-10 15-10 32-21 36-24h2l-2-5-5-4-1-4-16-15 2-2 7 7 11 9 2 1-16-34-8-16-12-26-14-29-6-13z" fill="#4B2D2D"/>
<path transform="translate(31,10)" d="m0 0 8 1 6 1 2 3 4 1 4 4-2 6-3 3-2 4-3 3h-2l-1 3-4 1-7-2v-2h-2l-2-4v-4h-2l-3-9 3-2 2 1 2-7z" fill="#0D3E56"/>
<path transform="translate(90,158)" d="m0 0 5 2 2 4-2 4h-2l6 15 9 19-1 2-5-5-3-2v-2l-7-2-2-4-10-3-4-2-3-3-4-1-7 4-2-1 14-9 9-6-1-4 2-4z" fill="#34222C"/>
<path transform="translate(76,96)" d="m0 0 12 1 6 3v5l-8 6-2 4-6 3-1 7-1 5-3-1-6-14-4-5-2-7v-4z" fill="#07203C"/>
<path transform="translate(1513,933)" d="m0 0 5 1 24 14 4 4-8 1h-19l-6 1h-18l6-8z" fill="#11596E"/>
<path transform="translate(1596,807)" d="m0 0h4v44h-2l-20-30 2-4 11-7z" fill="#12949F"/>
<path transform="translate(924,713)" d="m0 0h18l-2 5-5 6-12 6-14 4-9 6h-4l-3-11 10-1 5-5 9-5 4-4z" fill="#0E0E2B"/>
<path transform="translate(1520)" d="m0 0h2l10 42 8 36 5 21 1 2 2 12 6 26-1 3-2-4-1-5-9 5-14 10h-2v11l-2-1v-10l-9 2-2-1v-2h-2l1 9 7 7-7 1-3-5-1-1v-6l1-5-15-15-2-4 4 2 15 15 10-1 6-8 1 2-5 9 8-4 11-8 7-4v-7l-4-13-4 7h-2l2-5 3-4v-8l-7-28-3-15-4-15-3-12-4-20z" fill="#105F73"/>
<path transform="translate(13)" d="m0 0h24v2l5 2 10 9 6 5-2 1-7-3-4-2-9-3-7 1-2 6-4 1 2 9h2l3 8-1 4-14-29-3-7z" fill="#0A223D"/>
<path transform="translate(539,951)" d="m0 0 5 2 7 7 9 7v2l5 2v2l2 1 3 5v2h2v2l-14 1-6 1-4-5-8-19-2-9z" fill="#02031D"/>
<path transform="translate(1227,982)" d="m0 0 9 1 5 5 10-1v2l-9 3-1 9 4 6-4-2-7-4-6 2-5 11-6 15-4 8-1-3 4-9 5-12 4-10-5-2v-2l-3-1 2-10z" fill="#07213D"/>
<path transform="translate(0,37)" d="m0 0h1l4 47 2 1h-2l1 8v12l11-2 7-1-5-6-2-1v-2l4 2 5 5v2l25-4h6l-3-6 1-3 5 10-4 1-49 7 4 56v14h-1l-5-62v-8h-5z" fill="#283544"/>
<path transform="translate(198,16)" d="m0 0 9 1 4 2-1 2-2 8-3 9-3 7-3 3h-2v2l-6 2-13-6 3-2 8-2 3-9 3-7 3-5z" fill="#34222C"/>
<path transform="translate(994,1049)" d="m0 0h7l3 2h7l5 4v6h2l-1 3-1 1h-38l2-7 9-4z" fill="#34222D"/>
<path transform="translate(643,1039)" d="m0 0 5 1 9 7 9 8-1 4-25 2h-10l-3-3 4-5 10-6h3v-4z" fill="#07213D"/>
<path transform="translate(143,91)" d="m0 0 4 2 39 33 4 3 5-1 2 1 4-7 1 2v2l28-28v3l-10 10-4 5-15 15v7l-4 4-7 2-1-8v-2l-66-29 3-1 58 25-1-4-4-2-13-11-10-9-11-9z" fill="#472C2D"/>
<path transform="translate(1365,769)" d="m0 0 2 1-1 5-2 7h-2v6l-3 2-1 3-5 5-2 6 5 3 1 5-21 4h-3l1-4 12-17 12-16z" fill="#07223E"/>
<path transform="translate(1575,821)" d="m0 0 3 1 11 18 3 4-1 4-9-2-9-3-9-5-7-3 4-4z" fill="#12949F"/>
<path transform="translate(1410,926)" d="m0 0v3l-4 3h-2l-2 5-1 2 4 1 1 6-5 17-2 1 1-8 3-9v-5l-13 9-13 11-7 5-1-2 10-8 11-9 8-7 1-2-16 6-48 16-10 3-10 4-40 13-4-1 28-10 30-10 20-7 11-3 9-3 10-4 13-4 7-3 3-8 1-1z" fill="#116E7F"/>
<path transform="translate(1271,982)" d="m0 0 4 1-5 4-5 3-4 6-6 10v7h-2v-2l-5-2-7-6-1-6 2-6z" fill="#0D0E2B"/>
<path transform="translate(1544,110)" d="m0 0 2 3 3 11v7l-12 8-10 7-5 1 2-5 5-12 8-12h3l1-4z" fill="#0D1431"/>
<path transform="translate(1509)" d="m0 0h11l6 24 2 11 4 15 6 26 1 4v7h-2v-2h-2l-2-14-3-9v-12h-2v-2h-2l-1-7-2-6 1-5-2-1v-7l-2-7-3-3-6 1-3-2v-5l1-2z" fill="#030822"/>
<path transform="translate(510,63)" d="m0 0 4 4 9 16 6 9h5l15-13 10-9 2 1-8 8-8 7-10 9-1 3 4-1-1 3h-2l-1 4-3 1-1-2 1-2-5 2 1-3-2-1 1-2-11-2-96-24-2-2 9 1 64 16 37 9-11-20-6-10z" fill="#482C2E"/>
<path transform="translate(1587,42)" d="m0 0 2 2 1 5 6-3h4v15l-4 2-7 1-2 2h-6l-1-4h-5l1-5 3-6 4-6z" fill="#02031D"/>
<path transform="translate(1434,877)" d="m0 0 1 3-4 9-9 19-9 21 8-4 7-5h2v-2l7-4h2v-2l4-1v2l-10 7-16 10-1 7v3l4 5 8 7 10 9-3 1-5-5-11-10-7-5-3-1v2l-4 1-1-4-3-1 2-5 5-5 2-1 8-18 6-13 8-16z" fill="#118D99"/>
<path transform="translate(1370,759)" d="m0 0 2 1-8 12-28 38-3 6 3-1h7v2l-8 1 2 5 14 7 5 4 12 8 1 2-6-2-16-10-13-8-4-1 1 13v14h-1l-2-12-1-12-4-7 1-3 5-2 13-17 9-12 14-19z" fill="#11909B"/>
<path transform="translate(712,1054)" d="m0 0h4l-1 7-1 4h-51l2-4 15-3 28-3z" fill="#02031D"/>
<path transform="translate(254,27)" d="m0 0 4 1 3 2-1 5-6 12-2 5-4 1-1 6-3 3 2 7-7 2 1-5-5-1 3-9 13-23z" fill="#02031D"/>
<path transform="translate(357,127)" d="m0 0 5 1 38 17 6 3 6 2v2h-18l-14-1-1-3v-11l-4 4-5-2-9-7z" fill="#02031E"/>
<path transform="translate(48,823)" d="m0 0h2l-2 5-10 13-3 4h-2l-2 6h-7l-9-6-4-1v-3l8-3 10-2 8-6z" fill="#0E0E2B"/>
<path transform="translate(1548)" d="m0 0h25l9 3 12 5 3 4-1 4-10-1-12-4-6-3-19-6z" fill="#0E0E2B"/>
<path transform="translate(78)" d="m0 0h35v9l2 5-1 2-6-1-29-13z" fill="#071F3B"/>
<path transform="translate(358,124)" d="m0 0 9 1 9 3 6-1h4l13 10 10 8v2l-5-1-29-13-16-7z" fill="#03041E"/>
<path transform="translate(333)" d="m0 0h27l-4 4-21 13-4-6 1-10z" fill="#3E252C"/>
<path transform="translate(955,693)" d="m0 0 5 1 2 1-1 7 1 6-8 5h-10v-12l4-4h5z" fill="#0E0E2B"/>
<path transform="translate(1116,983)" d="m0 0 6 1 4 7 1 3 18 8 2 2-5-1-17-7-4-1 2 5-1 3-2-3h-5l-2-3-6 1-10 5-2-1 14-8 3-8z" fill="#118A97"/>
<path transform="translate(1560,939)" d="m0 0 2 2 4 19 1 3 3 3h-2l2 13 14 64 3 18v4h-2l-8-41-7-32-8-37-2-9z" fill="#11697C"/>
<path transform="translate(347,52)" d="m0 0 8 1 9 2 12-1 12-2h8l-1 2h-4l-1 6h2v2l7 1 16 4 1 2-10-1-36-9-23-6z" fill="#492C2C"/>
<path transform="translate(1546,514)" d="m0 0 1 4-1 6 5 1-1 2h-4l4 8 15 22-1 2-11-15-7-10-8-1-4-4v-7l1-2h2l1-3 5 1z" fill="#118E9A"/>
<path transform="translate(1460,989)" d="m0 0 1 2-7 8-7 7-7 8-9 10-7 8-22 22-7 8-1 3h-2l1-5 17-17 7-9 15-16 5-5 11-12 5-6h2l1-3z" fill="#0D3E56"/>
<path transform="translate(380,153)" d="m0 0h20l12 1v3l-25 11h-2v-3l4-4-1-3-5-1-3-2z" fill="#03041E"/>
<path transform="translate(1228,987)" d="m0 0 6 1 3 3 1 9 7 6h-3l-5-4-5-1-4 2-5 11-6 15-4 8-1-3 4-9 5-12 4-10v-7l-1-6z" fill="#106578"/>
<path transform="translate(435,932)" d="m0 0h8l5 3-1 3-10 2h-7v-2l-6 1-4 1h-14l-1-4 5-3h6l2 1h13z" fill="#02031D"/>
<path transform="translate(1448,425)" d="m0 0 3 1 11 51 4 18 3 17 1 10-2-4-6-24-12-56-2-9z" fill="#105B70"/>
<path transform="translate(982,798)" d="m0 0 3 1 1 3v53l-3 1-1-7z" fill="#0A324C"/>
<path transform="translate(5,85)" d="m0 0 5 1 5 6 2 1v2l4 2 4 5-1 1-18 2z" fill="#071E3A"/>
<path transform="translate(104,759)" d="m0 0h5l5 6v2l3 1 2 5 4 2-1 2-3-1 1 5-5 1v13h-2l-1 3-2-4-1-17 2-4-1-7-2-4z" fill="#2A2232"/>
<path transform="translate(1572,451)" d="m0 0 1 3-10 26-3 7-5 12-4 9-2 5-1 6h4l1 4 20 2v1l-23 1v-2l-4-1v-11l5-13 5-11 1-5h2l1-6z" fill="#117787"/>
<path transform="translate(1558,301)" d="m0 0 9 1 3 3v8l-3 2-1 3-6-2-6-3v-8z" fill="#116679"/>
<path transform="translate(1412,701)" d="m0 0h1v20h-2l-1-12-8 10-9 13-8 11-12 16h-2l2-5 11-15 8-11 14-19z" fill="#116B7D"/>
<path transform="translate(1520)" d="m0 0h2l10 42 8 36 5 21 1 7-2 2-3-15-7-30-8-32-4-20z" fill="#116E7F"/>
<path transform="translate(1552,779)" d="m0 0 4 4 16 26 4 7v2h2l5 9 14 21-1 2-8-10-11-18-5 2-14 10-5 3h-2v-2l16-10 7-5-1-5-13-21-8-13z" fill="#11667A"/>
<path transform="translate(1e3 445)" d="m0 0 5 1 4 5 2 6 6 2 2 2v3h3v4l-7 1-11-11-5-10z" fill="#07213D"/>
<path transform="translate(141,395)" d="m0 0 4 2 14 13 11 9 8 7v2l4 2 17 16 10 9 8 7-1 2-11-9-9-9-8-7-13-12-10-9-11-10-8-7z" fill="#4C2D2C"/>
<path transform="translate(1536,220)" d="m0 0 2 3 7 23 3 10v6l-2-3-4-12v-2h-2l-3-9h-7l-2-2 3-7 4-3z" fill="#116E80"/>
<path transform="translate(1509)" d="m0 0h11l4 15v8l-2-1-2-7-3-3-6 1-3-2v-5l1-2z" fill="#02051F"/>
<path transform="translate(210,278)" d="m0 0m-1 1m-2 1 2 1-5 5-66 44-8 5-2-1 23-16 15-10 22-15z" fill="#4C2D2C"/>
<path transform="translate(762,1057)" d="m0 0 22 3 6 3v2h-31v-7z" fill="#02031D"/>
<path transform="translate(1455,238)" d="m0 0 4 1v35l-1 13-2 2-1-14z" fill="#0F5066"/>
<path transform="translate(221,457)" d="m0 0 5 1 2 1 2 7 1 3h4l5 11-1 2-11-10-8-7-3-1 2-6z" fill="#3C242C"/>
<path transform="translate(415,48)" d="m0 0h8l-3 9-4 10h2l-1 3-2-1v-1l-6-1-1-4 4-10v-4z" fill="#34222C"/>
<path transform="translate(1323,809)" d="m0 0h5l3 2-2 4-5 1 1 6 3 4-1 4-7-2-3-5v-6l3-6z" fill="#0D3E56"/>
<path transform="translate(35,50)" d="m0 0h2l6 13h6l1 7-1 6 5 10-1 3-7-13-6-1-4-8 4-1-1-5-4-9z" fill="#433235"/>
<path transform="translate(218)" d="m0 0h23l-2 4-4 3h-2v2l4 1-1 2-7-1-9-6z" fill="#0C0A21"/>
<path transform="translate(183,359)" d="m0 0 3 4 13 26 11 23 12 25 1 3-3-1-8-16-18-38-11-23z" fill="#482B2C"/>
<path transform="translate(1349,953)" d="m0 0 2 1v2l-16 5-10 3-10 4-40 13-4-1 28-10 30-10z" fill="#0E455C"/>
<path transform="translate(1441,365)" d="m0 0 2 1-2 3-7 2v4l5 3v3h2l6 27 3 17h-2l-7-30-3-13-7-4-1-5 2-5 3-2z" fill="#116276"/>
<path transform="translate(1109,996)" d="m0 0 5 1 1 2h5l4 2 6 16 3 9-6 1-2-4 1-2-2-6-7-12-5-3z" fill="#0D425A"/>
<path transform="translate(488,604)" d="m0 0 3 1v30l-1 17-2-3-1-12v-32z" fill="#092E48"/>
<path transform="translate(1012,417)" d="m0 0 4 4 5 9 2 4v5l4-1 4 6-2 1 1 6 1 3-5-2-3-4-1-4-3-3-2-9-3-9z" fill="#07213D"/>
<path transform="translate(1115,978)" d="m0 0 8 1 4 4 2 12-3-1-4-9-6-1-4 3-2 7-2 1-1-3v-8l5-5z" fill="#07213D"/>
<path transform="translate(34,427)" d="m0 0 3 3 1 8-1 3h-5l-1 4-1-2h-3l1-5-3 1-1-6h2l1-5h5l1 1z" fill="#472B2D"/>
<path transform="translate(140,905)" d="m0 0h4v17l-1 26-2 3-1-6-1-39z" fill="#4B2C2C"/>
<path transform="translate(1522)" d="m0 0h9l2 5 8 5-3 1-4-1-3 2-2-1-2 6h-2l-3-13z" fill="#020520"/>
<path transform="translate(94,349)" d="m0 0h6l3 4 2 5h-2l1 4-8 1-4-2-1-7z" fill="#442F32"/>
<path transform="translate(1444,383)" d="m0 0h2l15 22 17 25 10 14 3 5-1 2-7-9v-2h-2l-5-9-16-23-14-20z" fill="#118391"/>
<path transform="translate(732,1055)" d="m0 0 5 1 1 3h2l1 6h-17l-1-4 2-3z" fill="#02031D"/>
<path transform="translate(1424,925)" d="m0 0h3l-1 7-3 5-1 7-5-1-3-5 1-1 1-7z" fill="#07223E"/>
<path transform="translate(0,862)" d="m0 0 4 2 3 5v2l3 1 2 5 4 2v1h-6l-7-3-1 3h-2z" fill="#2A2333"/>
<path transform="translate(200,519)" d="m0 0m-2 1h2l-1 3-17 11-26 17-14 9h-2v-2l16-10 15-10z" fill="#4A2C2C"/>
<path transform="translate(90,158)" d="m0 0 5 2 2 4-2 4h-2l-1 3h-10l1-5v-3l1-3z" fill="#463132"/>
<path transform="translate(610,106)" d="m0 0h3v42l-2 3-1-1z" fill="#15112B"/>
<path transform="translate(1036,66)" d="m0 0h3v42l-2 4-1-4z" fill="#0E4D63"/>
<path transform="translate(1365,636)" d="m0 0 5 2v15l-2 18h-2l-1-14z" fill="#4E2E2D"/>
<path transform="translate(161,445)" d="m0 0 6 2 33 17 22 12 12 7-3 1-29-16-27-14-14-8z" fill="#492C2C"/>
<path transform="translate(0,59)" d="m0 0h1l3 30 1 16-5 1z" fill="#040520"/>
<path transform="translate(1516,745)" d="m0 0 2 3 6 26v2l-2 1h-6v-23l-1-7z" fill="#12949F"/>
<path transform="translate(1370,759)" d="m0 0 2 1-8 12-14 19-13 18-2-1 2-4 10-14 10-13z" fill="#118391"/>
<path transform="translate(54,89)" d="m0 0 3 4 3 6-4 1-49 7-1-2 11-2 7-1-5-6-2-1v-2l4 2 5 5v2l25-4h6l-3-6z" fill="#2F2836"/>
<path transform="translate(85,99)" d="m0 0h2l-1 4 2 1-6 6-2 4h-2l-2-5-5-3 1-3 9-3z" fill="#0E0E2B"/>
<path transform="translate(221,310)" d="m0 0h3v25l-1 16h-1l-2-20v-20z" fill="#118491"/>
<path transform="translate(926,887)" d="m0 0 3 1v37l-1 5-2-4z" fill="#092B46"/>
<path transform="translate(1248,872)" d="m0 0h3l1 17v9l-1 10-2 2-2-16v-12z" fill="#07213D"/>
<path transform="translate(216,465)" d="m0 0 4 2 15 14-1 3-21-12 2-1z" fill="#04051F"/>
<path transform="translate(1494,285)" d="m0 0h2l-2 5-13 19-1 3h-2l-2 5-5 7-1 3h-2l-1 4-5 5 2-5 11-17 5-9z" fill="#113A51"/>
<path transform="translate(1599,21)" d="m0 0h1v17l-5 1-5-1 2-9 4-6z" fill="#02041E"/>
<path transform="translate(1574 1e3)" d="m0 0 2 2 9 40 2 18h-2l-8-41-3-13z" fill="#117A89"/>
<path transform="translate(1589,37)" d="m0 0 11 1v8l-6 2-4 1-2-6-4 2 2-6z" fill="#0D0D2A"/>
<path transform="translate(1331,841)" d="m0 0h1l4 43v14h-1l-3-20-2-28z" fill="#0D3E56"/>
<path transform="translate(707,188)" d="m0 0 4 1v18l-1 20-2-1-1-17z" fill="#4B2D2C"/>
<path transform="translate(81,170)" d="m0 0h12l7 15 2 5-1 3-9-17-14-1-6 3-2-1 9-6z" fill="#3E252C"/>
<path transform="translate(1545,106)" d="m0 0 2 4 4 17 3 12-1 3-2-4-1-5-9 5-9 6v-3l5-3 11-7v-7l-4-13-4 7h-2l2-5z" fill="#10344D"/>
<path transform="translate(1368,966)" d="m0 0 2 2-9 7-14 11-3 3-14 11-5 2 5-6 13-10 13-11 7-5h2v-2z" fill="#0D3E56"/>
<path transform="translate(89,1051)" d="m0 0 4 2v5l-1 1h-5l-3-2-1 8h-5l-1-8 4-3 7-2z" fill="#0E0E2B"/>
<path transform="translate(1459,468)" d="m0 0h1l6 27 3 17 1 10-2-4-6-24-4-19z" fill="#0F566B"/>
<path transform="translate(1510,147)" d="m0 0h2v2l11-1v11h-4l-2 2-4-4z" fill="#118E9A"/>
<path transform="translate(333)" d="m0 0h6l-1 4h-2l2 4 6 1-2 4-8 4-3-6 1-10z" fill="#34222C"/>
<path transform="translate(1229,984)" d="m0 0 6 1 4 4 1 6-2 5h-1l-1-9-4-3-5 1-2 1 1 13-1-2-2-1-3-3 2-7 2-3h2v-2z" fill="#0D4058"/>
<path transform="translate(584,937)" d="m0 0h3v35l-2 2-1-4z" fill="#0D102D"/>
<path transform="translate(419,677)" d="m0 0h3v40l-2-3-2-36z" fill="#4D2E2C"/>
<path transform="translate(1545,178)" d="m0 0 5 3 12 11h1v-5l4 5 2 8-5-1v-2l-4-2-4-5-3-1-6-7-3-3z" fill="#282A3B"/>
<path transform="translate(1567,468)" d="m0 0h3v7l-3 7h-2l-2 5-2 4h-2l1 3h-2l-1-3 4-10z" fill="#1A2C44"/>
<path transform="translate(1349,1024)" d="m0 0h1l4 29v12h-3l-2-24z" fill="#11596E"/>
<path transform="translate(529,936)" d="m0 0 4 3v2h2l-1 2-4-1-1-3-7 4-16 8-15 7-3-1 32-16z" fill="#07213D"/>
<path transform="translate(1369,653)" d="m0 0h1v27l-1 3-4-1v-25h1v14h2v-10z" fill="#2C2D3B"/>
<path transform="translate(1230,989)" d="m0 0 6 3-1 5 1 3 5 2 4 5-4-2-8-5h-6l-1-8 1-2z" fill="#118F9B"/>
<path transform="translate(1526,136)" d="m0 0 1 2-5 9 8-4 2 1-5 4h-2v11l-2-1v-10l-9 2-3-3 2-2 7-1z" fill="#114F65"/>
<path transform="translate(1538,517)" d="m0 0 6 1-2 4-3 1 1 6 4 2 1 2h-7l-4-4v-7l1-2h2z" fill="#11677A"/>
<path transform="translate(335,16)" d="m0 0m-2 1 2 1-5 5-11 6-15 9-9 5-2-1 21-13z" fill="#44292C"/>
<path transform="translate(1041,500)" d="m0 0 3 1-1 8 2 3v6l-3 4-4-1-2-7h3z" fill="#0E0E2B"/>
<path transform="translate(1395,938)" d="m0 0h2v2l-14 5-30 10-3-1 11-5 13-4z" fill="#117989"/>
<path transform="translate(42,737)" d="m0 0h7l-1 3-12 9-3-1 3-10z" fill="#3D242C"/>
<path transform="translate(1517,718)" d="m0 0h11l3 2-3 3-3 7-5-4-3-6z" fill="#126F81"/>
<path transform="translate(1402,316)" d="m0 0h2l1 17-1 14-2 4-1-16v-18z" fill="#3F282E"/>
<path transform="translate(331,191)" d="m0 0h2v2l-36 16-6 1 3-3 30-13z" fill="#482B2C"/>
<path transform="translate(1398,962)" d="m0 0 3 1-2 8-8 24h-2l2-10 5-17z" fill="#0D4058"/>
<path transform="translate(416,123)" d="m0 0h7v10l-2 5h-3l-2-7-1-5z" fill="#02031D"/>
<path transform="translate(239,493)" d="m0 0m-1 1m-2 1h2l-1 3-19 12-10 7-6 4-2-1 3-3 15-10z" fill="#4C2D2C"/>
<path transform="translate(1434,363)" d="m0 0h9v2l-10 3-2 7v3l6 2 2 3-8-1-3-6v-8l3-3h3z" fill="#0D3C54"/>
<path transform="translate(1565,199)" d="m0 0h5l3 2v2h2l-1 2h-4l1 6 2 1-1 4-5-5-3-8z" fill="#2A2333"/>
<path transform="translate(1421,695)" d="m0 0h2l-1 9-3 7h-2l1 7-2 2-2-1 2-9h2v-4l-3-1 2-6 3-1z" fill="#0D3E56"/>
<path transform="translate(1571,457)" d="m0 0 3 1 3 11-1 2-4 1-5-5z" fill="#0D0F2C"/>
<path transform="translate(490,75)" d="m0 0 12 1 6 4v2h-9l-9-2-1-4z" fill="#0E0E2B"/>
<path transform="translate(1555,85)" d="m0 0h2l-2 5-6 11-3 4-2-6v-5l8-4z" fill="#0D3E56"/>
<path transform="translate(741,1046)" d="m0 0h2v10l-5-1-6-4-1-3z" fill="#07213D"/>
<path transform="translate(1325,811)" d="m0 0h6l-2 4-5 1 1 6 3 4-1 4-1-3-5-3-1-8 2-3h3z" fill="#115F73"/>
<path transform="translate(1572,451)" d="m0 0 1 3-10 26-3 7-2 3-1-6h2l1-6z" fill="#0F5368"/>
<path transform="translate(789,27)" d="m0 0 1 2 4 1 4-2h10l-5 4-7 5-4-2-3-5z" fill="#02031D"/>
<path transform="translate(1338,824)" d="m0 0 7 3 8 5 15 10 1 2-6-2-16-10-9-6z" fill="#118C98"/>
<path transform="translate(112,799)" d="m0 0h3v28l-2 1-1-8z" fill="#0E455C"/>
<path transform="translate(325)" d="m0 0 3 1-11 12-5 4-6 7-7 5 2-4 21-21z" fill="#472B2D"/>
<path transform="translate(0,37)" d="m0 0h1l3 34v11l-2-1-2-22z" fill="#2E2C3A"/>
<path transform="translate(1440,382)" d="m0 0 2 4 5 22 3 17h-2l-7-30z" fill="#118391"/>
<path transform="translate(409,138)" d="m0 0h8l-1 5 4 1-2 1v2h-6l-6-7z" fill="#02031E"/>
<path transform="translate(5,85)" d="m0 0 5 1 3 5h-4l-1 5 3 5 3 3-8 1z" fill="#0E0E2B"/>
<path transform="translate(13,2)" d="m0 0 3 4 6 13 3 9h2l3 8-1 4-14-29-3-8z" fill="#2F2C39"/>
<path transform="translate(141,395)" d="m0 0 4 2 14 13 11 9 4 5h-3l-8-8-8-7-10-9z" fill="#462A2C"/>
<path transform="translate(1455,238)" d="m0 0 4 1v13l-1 11-2-1-1-14z" fill="#12939E"/>
<path transform="translate(223,335)" d="m0 0h1v26l-1 9h-2v-26h1z" fill="#0B354E"/>
<path transform="translate(1555,277)" d="m0 0 1 2h2l3 5 4 8-5 2-2-1-3-10z" fill="#10102C"/>
<path transform="translate(1577,818)" d="m0 0 3 4 17 26-1 2-8-10-12-20z" fill="#116175"/>
<path transform="translate(1434,877)" d="m0 0 1 3-4 9-10 21-2-1 7-17z" fill="#118794"/>
<path transform="translate(982,798)" d="m0 0 3 1v27l-2-1-1-12z" fill="#11919D"/>
<path transform="translate(161,311)" d="m0 0 3 1-5 4-29 19-2-1 23-16z" fill="#472A2C"/>
<path transform="translate(1114,981)" d="m0 0h7l6 6v7l-2-3-3-6-6-1-4 3-2 7h-1v-8z" fill="#0D3E56"/>
<path transform="translate(1447,848)" d="m0 0h2l-1 6-7 15h-2l-1 6-3 4 1-6 4-9 5-10z" fill="#117585"/>
<path transform="translate(1461,336)" d="m0 0 1 3-7 10-9 15-2 6-2-1 2-7 10-16 6-9z" fill="#117484"/>
<path transform="translate(340,1019)" d="m0 0 4 2-1 4-7 4-3-1 1-5 3-3z" fill="#02031D"/>
<path transform="translate(1554,499)" d="m0 0h2l1 7-3 5-3 2-1 5h-2v-5l3-7z" fill="#1B3047"/>
<path transform="translate(1559,304)" d="m0 0 5 1 3 1-1 5-2 4-5-2z" fill="#12949F"/>
<path transform="translate(1116,983)" d="m0 0 6 1 4 7v3l-4-2-1-4-6-1-3 7h-2l1-7z" fill="#116578"/>
<path transform="translate(1560,939)" d="m0 0 2 2 4 19 1 3 3 3h-2v4h-3l-5-24z" fill="#116578"/>
<path transform="translate(174,119)" d="m0 0 6 4 5 5 1 2-9-3-9-4 4-3z" fill="#03041E"/>
<path transform="translate(510,63)" d="m0 0 4 4 9 16 6 9h2l-1 4h-3l-7-14-10-17z" fill="#4A2C2C"/>
<path transform="translate(1036,66)" d="m0 0h3v25l-2 2-1-15z" fill="#12929E"/>
<path transform="translate(1416,1037)" d="m0 0v3l-14 14-7 8-1 3h-2l1-5 22-22z" fill="#116E7F"/>
<path transform="translate(1501,340)" d="m0 0 3 1-7 4-19 10-5 2-4-1 25-12z" fill="#0F435A"/>
<path transform="translate(775,335)" d="m0 0 7 1-1 4-1 1h-12l-1-3 7-2z" fill="#0E0E2B"/>
<path transform="translate(1046,482)" d="m0 0h2l1 19-1 17h-1l-1-17z" fill="#0E4F65"/>
<path transform="translate(226)" d="m0 0h15l-2 4-4 3-5-2z" fill="#02031D"/>
<path transform="translate(200,465)" d="m0 0 16 8 17 9 1 2-5-1-18-10-11-6z" fill="#4D2E2C"/>
<path transform="translate(1578,281)" d="m0 0h5l2 4-4 8-3-1-1-10z" fill="#2A2333"/>
<path transform="translate(1228,987)" d="m0 0 6 1 3 3 1 4-1 5-3-3 1-5-5-2h-3v11h-1l-2-7 1-5z" fill="#116377"/>
<path transform="translate(1079,536)" d="m0 0h1v16l1 1v6l-3-4-2-9-1-4z" fill="#07213D"/>
<path transform="translate(174,960)" d="m0 0 5 1 2-1 1 5-4 1 1 3-2 5-1-4 1-5-6 1v-4z" fill="#07203C"/>
<path transform="translate(1386,738)" d="m0 0 1 3-5 6-9 12h-2l2-5 11-15z" fill="#11697B"/>
<path transform="translate(289,209)" d="m0 0 3 1-4 3-20 8-2-1 8-4h2v-2z" fill="#3D252C"/>
<path transform="translate(3,89)" d="m0 0h1l1 16-5 1v-14l3 1z" fill="#0B0B27"/>
<path transform="translate(1441,911)" d="m0 0h2v2l-10 7-14 9-3-1 12-8h2v-2l7-4h2v-2z" fill="#128895"/>
<path transform="translate(1572,279)" d="m0 0h2l-1 5h-3l-1 2-3-1 1 4-2 3-3-5-1-3 7-2z" fill="#2A2333"/>
<path transform="translate(1448,425)" d="m0 0 3 1 3 14v8l-2-1-3-16z" fill="#106A7C"/>
<path transform="translate(259)" d="m0 0h8l-2 6-4 7h-1z" fill="#02031D"/>
<path transform="translate(1043,1056)" d="m0 0 4 1-16 6h-4v2l-7-1 3-2z" fill="#242D40"/>
<path transform="translate(1509,148)" d="m0 0h1l1 8 7 7-7 1-3-5-1-1v-6z" fill="#0D3B53"/>
<path transform="translate(1477,310)" d="m0 0h2l-2 5-6 9-1 3h-2l-1 4-5 5 2-5 11-17z" fill="#105369"/>
<path transform="translate(341,1058)" d="m0 0 5 1v6h-9l2-6z" fill="#0E0E2B"/>
<path transform="translate(1331,841)" d="m0 0h1l1 9v21l-2-4-1-17z" fill="#10566B"/>
<path transform="translate(488,604)" d="m0 0h2v20l-3-4v-15z" fill="#106275"/>
<path transform="translate(1473,426)" d="m0 0 3 1 12 17 3 5-1 2-7-9v-2h-2l-5-9z" fill="#10576C"/>
<path transform="translate(583,49)" d="m0 0v3l-12 11-8 7-2-1 5-5 13-12z" fill="#120F2B"/>
<path transform="translate(248,20)" d="m0 0 6 3-1 4-3 3v-2l-5-1v-3z" fill="#03041E"/>
<path transform="translate(139,559)" d="m0 0 2 2-10 7-9 4 2-4z" fill="#39232C"/>
<path transform="translate(1548,519)" d="m0 0h4l1 4 20 2v1l-23 1-1-6z" fill="#105A6F"/>
<path transform="translate(191,272)" d="m0 0h6v3h-26v-1l5-1z" fill="#482B2C"/>
<path transform="translate(1531,201)" d="m0 0 2 3 4 16-2 5-3 2 2-4-1-8-3-9z" fill="#105E72"/>
<path transform="translate(42,850)" d="m0 0h6l-1 4-5 3h-3v-2l-3-1 1-2z" fill="#0E0E2B"/>
<path transform="translate(1470,522)" d="m0 0h1l5 19-1 3h-2l-3-13z" fill="#0D445B"/>
<path transform="translate(257,374)" d="m0 0h2l1 6-1 16-2 2z" fill="#44292C"/>
<path transform="translate(54,89)" d="m0 0 3 4 3 6-4 1-18 2 2-2 11-2h6l-3-6z" fill="#3A2A32"/>
<path transform="translate(1381,806)" d="m0 0h8l-4 2-16 4-7-1v-1z" fill="#116A7D"/>
<path transform="translate(487,620)" d="m0 0h1v15h2v17l-2-3-1-12z" fill="#07213D"/>
<path transform="translate(1460,974)" d="m0 0 7 1 1 5-4 2-4-3z" fill="#07213D"/>
<path transform="translate(388,936)" d="m0 0 9 1 2 1-2 4-7-1-5-1 1-3z" fill="#02031D"/>
<path transform="translate(186,434)" d="m0 0 6 1 3 3 4 3 1 4 2 3-4-2-8-8z" fill="#2B2232"/>
<path transform="translate(1487,3)" d="m0 0 7 1-1 3-10 1-4-3 3-1z" fill="#02031D"/>
<path transform="translate(157,968)" d="m0 0 4 1-7 4-8 4h-4l1-3 8-3z" fill="#07213D"/>
<path transform="translate(1446,370)" d="m0 0h1v7l-2 3h-3l-1-6 3-3z" fill="#0F5167"/>
<path transform="translate(1504,681)" d="m0 0 2 1 5 20v2l2 1h-6l1-3z" fill="#11596E"/>
<path transform="translate(1598,17)" d="m0 0h2l-1 5-3 1-2 5-6 9-1-2 5-9z" fill="#0D485F"/>
<path transform="translate(1418,945)" d="m0 0 5 2 8 8 7 6-3 1-5-5-12-11z" fill="#117686"/>
<path transform="translate(218,463)" d="m0 0 14 12v2l-4-2-8-7-3-4z" fill="#4D2E2D"/>
<path transform="translate(230,98)" d="m0 0v3l-10 10-4 5-4 2 2-4z" fill="#432A2E"/>
<path transform="translate(421,100)" d="m0 0h5v6l-2 2-5-1v-5h2z" fill="#02031D"/>
<path transform="translate(1418,910)" d="m0 0 3 1-8 16h-2l2-6z" fill="#118492"/>
<path transform="translate(594,446)" d="m0 0 6 4-2 6-6-3z" fill="#0E0E2B"/>
<path transform="translate(1590,300)" d="m0 0h7l3 1v3h-2v-2l-6 1-3 3-3 1 1-5z" fill="#0E0E2B"/>
<path transform="translate(498,43)" d="m0 0 4 4 8 13v3h-2l-10-18z" fill="#13102B"/>
<path transform="translate(1351,1051)" d="m0 0h2l1 2v12h-3z" fill="#116F80"/>
<path transform="translate(1368,966)" d="m0 0 2 2-9 7-6 5h-2l2-4 8-6h2v-2z" fill="#0F4F65"/>
<path transform="translate(1368)" d="m0 0 4 2 7 8 7 7 1 3h-2l-7-8-9-9z" fill="#106578"/>
<path transform="translate(1349,953)" d="m0 0 2 1v2l-16 5-4-1 12-5z" fill="#105D71"/>
<path transform="translate(1479,115)" d="m0 0 3 1v2l4 2v2l4 2 2 4h-3l-10-11z" fill="#17344B"/>
<path transform="translate(559,70)" d="m0 0 2 1-8 8-8 7-3 2 1-4 8-7z" fill="#492B2C"/>
<path transform="translate(335,16)" d="m0 0m-2 1 2 1-5 5-10 5v-3z" fill="#492B2C"/>
<path transform="translate(1369,947)" d="m0 0 2 2-18 6-3-1 11-5z" fill="#116E7F"/>
<path transform="translate(1410,926)" d="m0 0v3l-4 3h-2l-1 3-2-1 2-7z" fill="#11667A"/>
<path transform="translate(239,493)" d="m0 0m-1 1m-2 1h2l-1 3-14 9-2-1 9-7z" fill="#4E2E2C"/>
<path transform="translate(1572,451)" d="m0 0 1 3-7 18-2-1 3-9z" fill="#0D3E56"/>
<path transform="translate(1113,994)" d="m0 0h5l3 4-1 2h-5l-2-3-3-2z" fill="#116679"/>
<path transform="translate(156,548)" d="m0 0 2 2-16 10h-2v-2z" fill="#472A2C"/>
<path transform="translate(1081,530)" d="m0 0h1l1 6v8l-1 7h-1l-1-17z" fill="#40272C"/>
<path transform="translate(791,332)" d="m0 0 7 1-1 4h-7l-1-4z" fill="#0E0E2B"/>
<path transform="translate(1530,165)" d="m0 0 8 6 7 6v2l-4-2-11-10z" fill="#10556A"/>
<path transform="translate(1549,129)" d="m0 0 1 3-17 12-2-2 6-4 11-7z" fill="#153A51"/>
<path transform="translate(1424,1028)" d="m0 0 1 3-7 7-4 1 2-4z" fill="#0F4C62"/>
<path transform="translate(1245,1007)" d="m0 0 8 4 5 5 4 5-4-2-13-10z" fill="#0E4E64"/>
<path transform="translate(899,326)" d="m0 0 3 4 9 2 3 3-4-1h-9l-2-2z" fill="#07213D"/>
<path transform="translate(5,85)" d="m0 0 5 1 3 5h-4l-3 3-1-1z" fill="#0D0C28"/>
<path transform="translate(22,60)" d="m0 0 6 2 6 3 5 1-3 2-5-1-10-5z" fill="#0E0E2B"/>
<path transform="translate(1584,39)" d="m0 0h2l-1 4-7 11-3 2 2-5z" fill="#07233F"/>
<path transform="translate(21,21)" d="m0 0 3 2 1 5h2l3 8-1 4-8-17z" fill="#382C34"/>
<path transform="translate(1420,927)" d="m0 0 2 1-3 3-1 9-1 3-3-5 1-1 1-7z" fill="#0C3D55"/>
<path transform="translate(1558,301)" d="m0 0 4 1 6 3 1 5h-3l1-4-9-2z" fill="#116E80"/>
<path transform="translate(1468,143)" d="m0 0h4l2 3-1 5-5-3z" fill="#34222D"/>
<path transform="translate(1577,818)" d="m0 0 3 4 7 11v2h-2l-9-15z" fill="#105D71"/>
<path transform="translate(1441,862)" d="m0 0h1l-1 7h-2l-1 6-3 4 1-6 4-9z" fill="#117F8E"/>
<path transform="translate(1328,829)" d="m0 0 2 4 1 3v14h-1l-2-12z" fill="#118794"/>
<path transform="translate(131,670)" d="m0 0 1 2h2v2l4 2h-9l-2-3z" fill="#36222C"/>
<path transform="translate(221,354)" d="m0 0 3 3-1 13h-2z" fill="#07213D"/>
<path transform="translate(1036,108)" d="m0 0h3v11l-2 2-1-1z" fill="#07213D"/>
<path transform="translate(1454,836)" d="m0 0 1 2-5 11-3-2 4-9z" fill="#116A7D"/>
<path transform="translate(1549,510)" d="m0 0v3 7l1 4h-4v-11z" fill="#116A7C"/>
<path transform="translate(235,471)" d="m0 0 2 2 3 9-7-5v-4h2z" fill="#271B2C"/>
<path transform="translate(303,203)" d="m0 0 3 1-4 3-8 3-3-1z" fill="#45292C"/>
<path transform="translate(1311,101)" d="m0 0h2v15l-2 1-1-14z" fill="#07213D"/>
<path transform="translate(1565,558)" d="m0 0 4 5 5 8-1 2-7-10-2-4z" fill="#116175"/>
<path transform="translate(219,475)" d="m0 0 14 7 1 2-5-1-10-6z" fill="#4A2D2D"/>
<path transform="translate(1494,285)" d="m0 0h2l-2 5-5 7-3 1 2-4z" fill="#123950"/>
<path transform="translate(1519,158)" d="m0 0h5l6 6v2l-4-2-3-3-3-1-1 2z" fill="#116E80"/>
<path transform="translate(1510,149)" d="m0 0 2 2 2 6 4 4h-3l-5-5z" fill="#116477"/>
<path transform="translate(42,101)" d="m0 0 3 1-10 5-3-1 2-4z" fill="#0D102D"/>
<path transform="translate(338,1049)" d="m0 0 4 1v4l-4 2-2-4z" fill="#0E0E2B"/>
<path transform="translate(1350,1039)" d="m0 0 2 3 1 9h-2l-1 3z" fill="#116477"/>
<path transform="translate(35,952)" d="m0 0 6 1v2l-9 2-4 1 5-5z" fill="#1E2E45"/>
<path transform="translate(470,932)" d="m0 0h9v2l-5 2-5-1z" fill="#02031D"/>
<path transform="translate(229,459)" d="m0 0 3 4 2 6h-3l-3-5z" fill="#281B2C"/>
<path transform="translate(1448,355)" d="m0 0 3 1-6 10-1 4-2-1 2-7z" fill="#117C8B"/>
<path transform="translate(1415,931)" d="m0 0h1v6 3l-1 2-3-4v-5z" fill="#116477"/>
<path transform="translate(1441,911)" d="m0 0h2v2l-10 7-3-2 7-4h2v-2z" fill="#117989"/>
<path transform="translate(1341,798)" d="m0 0h2l-1 4-5 7-2-1 2-4z" fill="#118593"/>
<path transform="translate(50,714)" d="m0 0h1l1 16h-3l-1-4 1-4z" fill="#3E252C"/>
<path transform="translate(1410,703)" d="m0 0h1v6l-5 5h-3z" fill="#115C71"/>
<path transform="translate(24,446)" d="m0 0h2l-2 5-5 9-1-3z" fill="#482B2C"/>
<path transform="translate(587,408)" d="m0 0 2 1-1 21h-1l-1-21z" fill="#492C2C"/>
<path transform="translate(141,395)" d="m0 0 4 2 10 9-3 1-11-11z" fill="#3B242C"/>
<path transform="translate(1562,302)" d="m0 0h5l3 3v8l-4 2 2-5-1-5-5-2z" fill="#11596E"/>
<path transform="translate(1119,984)" d="m0 0 4 1 3 6v3l-4-2v-6l-3-1z" fill="#115D72"/>
<path transform="translate(1329,960)" d="m0 0 4 2-9 3h-5l1-2z" fill="#0F5469"/>
<path transform="translate(1434,877)" d="m0 0 1 3-4 9-1 2h-2l2-7z" fill="#118F9A"/>
<path transform="translate(1517,331)" d="m0 0m-1 1m-1 1 1 2-12 6-1-2z" fill="#1E2E45"/>
<path transform="translate(1455,275)" d="m0 0h1l1 12h1v6l-2 1-1-3z" fill="#07213D"/>
<path transform="translate(1545,178)" d="m0 0 5 3 5 6-4-1-7-6z" fill="#15354D"/>
<path transform="translate(1521,145)" d="m0 0 1 3-5 2-5-1 3-3z" fill="#116578"/>
<path transform="translate(160,106)" d="m0 0 4 1 8 7-2 2-10-9z" fill="#432D31"/>
<path transform="translate(308,18)" d="m0 0 3 1-11 10v-3z" fill="#40272C"/>
<path transform="translate(1449,905)" d="m0 0h3v2l-7 5-3-1 5-5z" fill="#11687B"/>
<path transform="translate(1386,738)" d="m0 0 1 3-5 6-3 1 2-5z" fill="#116E80"/>
<path transform="translate(1444,383)" d="m0 0h2l7 11h-3l-6-9z" fill="#117F8E"/>
<path transform="translate(1571,223)" d="m0 0h1v7l-4 2 1-7z" fill="#3E252C"/>
</svg>
